<svg xmlns="http://www.w3.org/2000/svg" id="130a8f41-04eb-434c-a173-92b5d0a4aaa3" width="382.42" height="48.77" data-name="Lager 1" viewBox="0 0 382.42 48.77"><defs><style>.c1de5c8e-031f-4918-9388-ca268ff09150{fill:#fff;fill-rule:evenodd;}</style></defs><path d="M343.58 32.85h13.74l-7-18.43-6.77 18.43zM243.14 0v48.77h19V16.84l12.71 31.93h14.34l13-32.72v32.72h35.43l1.79-6h21.9l1.79 6h19.32L363.1 0h-24.09l-18.82 43.2V0H290.4l-8.17 21.4L274.66 0h-31.52zm-5 36.83h-38v-7h30V17.92h-30v-6h36V0H128.08v11.94h18v24.89h-33V0H94.01v48.77h70V11.94h18v36.83h56V36.83zM67.01 0h19v48.77h-19V0zm-48 29.86h21.21a2.7 2.7 0 0 1 3 2.89c0 1.19 0 3.09-3 3.09H19.01v-6zm0-17.92h18.82c2.59 0 2.79 1.9 2.79 2.89 0 1.19.2 2.09-2.79 3.09H19.01v-6zm-19 36.83h50.61c4.65 0 9.93-4.17 11.71-8.73a20.25 20.25 0 0 0 .8-10.61c-1.39-5-5.78-7.19-8.17-8.77A24.31 24.31 0 0 0 57.15 19c2.19-1.78 3.31-4.76 3.59-7.94C61.26 5 55.07 0 48.79 0H.01v48.77z" class="c1de5c8e-031f-4918-9388-ca268ff09150"/></svg>