<svg version="1.1" baseProfile="basic" id="Layer_1" alt="Logo Gigantti" class="logo-image align-center gigantti-logo" title="Gigantti" xmlns="http://www.w3.org/2000/svg" xmlns:xlink="http://www.w3.org/1999/xlink" x="0px" y="0px" viewBox="0 0 536.2 168.2" xml:space="preserve"> <path fill="#11175E" d="M290.8,54.6c-3.6,0-6.5,2.8-6.5,7v32.3l-26.5-35.3c-1.9-2.4-3.8-4-7.1-4h-1.6c-3.8,0-6.9,3-6.9,6.9v49.8l0,0 v7.1h7.1c3.8,0,6.5-2.7,6.5-6.2V77.8l27.5,36.5c1.9,2.4,3.8,4,7.1,4h0.4c3.8,0,6.9-3,6.9-6.9V54.6H290.8L290.8,54.6z"></path> <path fill="#11175E" d="M56.9,71.4c0.4-0.4,0.7-0.8,0.9-1.2c0,0,2.6-3.6,3.4-5.2c-1-1.1-3-2.7-5.7-4.6c-0.5-0.4-0.7-0.5-0.7-0.5 c-0.5-0.3-1.5-1-1.5-1l0,0C48.2,55.7,42.2,54,33.7,54C14.8,54,0.9,68.6,0.9,86.4v0.2c0,18.5,13.4,32.2,32.9,32.2 c9.4,0,16.8-3.1,21.9-6.3c3.3-2,4.8-4.7,4.8-8.7V81.7H32v6c0,3.3,2.7,5.9,6,5.9h9.2v8.9c-3.5,2.5-7.9,3.7-13,3.7 c-11.1,0-18.9-8.4-18.9-19.8v-0.2c0-10.6,8-19.5,18-19.5c5.9,0,9.9,1.6,13.7,4.3c1,0.7,0.7,0.5,0.7,0.5 C49.7,73.4,54.2,74.1,56.9,71.4"></path> <path fill="#11175E" d="M156.7,71.4c0.4-0.4,0.7-0.8,0.9-1.2c0,0,2.6-3.6,3.4-5.2c-1-1.1-3-2.7-5.7-4.6c-0.5-0.4-0.7-0.5-0.7-0.5 c-0.5-0.3-1.5-1-1.5-1l0,0C148,55.7,142,54,133.5,54c-18.9,0-32.8,14.6-32.8,32.4v0.2c0,18.5,13.4,32.2,32.9,32.2 c9.4,0,16.8-3.1,21.9-6.3c3.3-2,4.8-4.7,4.8-8.7V81.7h-28.5v6c0,3.3,2.7,5.9,6,5.9h9.2v8.9c-3.5,2.5-7.9,3.7-13,3.7 c-11.1,0-18.9-8.4-18.9-19.8v-0.2c0-10.6,8-19.5,18-19.5c5.9,0,9.9,1.6,13.7,4.3c1,0.7,0.7,0.5,0.7,0.5 C149.5,73.4,154,74.1,156.7,71.4"></path> <path fill="#11175E" d="M314.2,54.6c-3.5,0-6.3,2.8-6.3,6.3l0,0V67h19.6v44.4v6.9h7.2c3.8,0,6.6-2.7,6.6-6.2v-45h13.2 c3.5,0,6.3-2.6,6.3-6.1v-6.3h-46.6L314.2,54.6L314.2,54.6z"></path> <path fill="#11175E" d="M372,54.6c-3.5,0-6.3,2.8-6.3,6.3l0,0V67h19.6v44.4v6.9h7.2c3.8,0,6.6-2.7,6.6-6.2v-45h13.2 c3.5,0,6.3-2.6,6.3-6.1v-6.3H372L372,54.6L372,54.6z"></path> <path fill="#11175E" d="M74.4,61.5v56.8h7.1l0,0c4,0,6.7-2.7,6.7-6.2V54.6h-7.1C77.3,54.7,74.4,57.7,74.4,61.5"></path> <path fill="#11175E" d="M434.4,54.6c-3.8,0.1-6.7,3.1-6.7,6.9v56.8h7.1l0,0c4,0,6.7-2.7,6.7-6.2V54.6H434.4z"></path> <path fill="#11175E" d="M208.9,59.6c-1.5-3.4-4.2-5.5-8-5.5h-0.8c-3.8,0-6.5,2.1-8.1,5.5l-24,54.5c0,0,3.5,3.2,5.4,3.8 c1.4,0.4,1.5,0.4,2.3,0.4c2.9,0,5.2-1.6,6.4-4.3l3.5-8.2h29.5l3.3,7.8c1.3,2.9,3.4,4.8,6.6,4.8c1,0,2.1-0.2,2.8-0.6 c2.2-1,5.3-3.7,5.3-3.7L208.9,59.6z M190.8,93.5l9.5-22.6l9.5,22.6H190.8z"></path> <linearGradient id="SVGID_1_" gradientUnits="userSpaceOnUse" x1="448.7212" y1="12.3028" x2="510.9599" y2="73.7437" gradientTransform="matrix(1 0 0 -1 0 168.39)"> <stop offset="0.2808" style="stop-color:#95C93D"></stop> <stop offset="0.292" style="stop-color:#91C53E"></stop> <stop offset="0.533" style="stop-color:#519846"></stop> <stop offset="0.7397" style="stop-color:#0A7F48"></stop> <stop offset="0.9021" style="stop-color:#007248"></stop> <stop offset="1" style="stop-color:#006E47"></stop> </linearGradient> <path fill="url(#SVGID_1_)" d="M493.4,96.2l-19.2,20.4c-11.6,11.6-13.6,26.5-13.6,32.2c-0.1,0.6-0.1,1.1-0.1,1.8v0.2 c0,4.9,1.1,11.2,1.8,12.9l1.4,4.5l40.6-41.3c5.7-5.7,8.5-13.6,7.8-21.7c-0.6-6.2-3.4-12.1-7.8-16.5l-5-5l-2.2-2.3 C497.2,81.6,499.2,89.2,493.4,96.2"></path> <linearGradient id="SVGID_2_" gradientUnits="userSpaceOnUse" x1="451.0928" y1="151.4261" x2="538.0674" y2="66.8453" gradientTransform="matrix(1 0 0 -1 0 168.39)"> <stop offset="0" style="stop-color:#006E47"></stop> <stop offset="0.106" style="stop-color:#007047"></stop> <stop offset="0.2349" style="stop-color:#007848"></stop> <stop offset="0.3755" style="stop-color:#258548"></stop> <stop offset="0.5247" style="stop-color:#559A46"></stop> <stop offset="0.679" style="stop-color:#85BB3F"></stop> <stop offset="0.7192" style="stop-color:#95C93D"></stop> </linearGradient> <path fill="url(#SVGID_2_)" d="M462.4,6.6c0,0.2-3.2,12,1,26.7c3.4,11.8,13,22.7,13,22.7l40.1,40.2c6.8,6.8,4.9,15.3,4.7,15.6l0,0 l1.8-2l5.2-5c4.5-4.5,7.2-10.3,7.8-16.5c0.1-0.9,0.2-1.7,0.2-2.5v-0.2c0-7.1-2.9-13.9-7.9-19L463.5,2.4L462.4,6.6z"></path> 
</svg>