<svg width="183" height="32" viewBox="0 0 183 32" xmlns="http://www.w3.org/2000/svg">
          <g fill="#FFF" fill-rule="evenodd">
              <path d="M118.182 19.059h-6.71l.419-1.244 3.017-9.015 2.969 9.307.305.952zm8.9 9.87l-9.051-26.132h-6.116l-9.172 26.131h5.519l1.744-5.517h9.714l1.71 5.517h5.653zM.285 2.797v4.502H8.01L7.98 28.93h5.43l.023-21.63h7.825V2.797zm51.913 0l-.022 25.91h5.387l.022-9.18 2.208-2.208h.574l7.903 11.388h6.71L63.855 13.391 74.242 2.797h-6.8l-9.416 10.197h-.441V2.797zm125.225 0l.017 26.043h5.364l-.011-26.043zm-101.415 0l.011 26.131h4.768l-.01-20.922 5.11 20.922h5.111L95.877 7.3v21.63h5.21V2.796h-7.506l-5.033 20.481-4.869-20.48zm52.929 0h5.254l10.3 18.01h.484l.045-18.01h4.89v26.131h-5.332l-10.64-18.494h-.31l.077 18.583h-4.856zM30.7 15.84a4.966 4.966 0 0 1 4.968-4.965 4.966 4.966 0 1 1 0 9.931 4.966 4.966 0 0 1-4.968-4.965M153.365 2.709h5.254l10.299 18.01h.485l.045-18.01h4.89V28.84h-5.332l-10.64-18.494h-.31l.078 18.583h-4.857z"></path>
              <path d="M46.026 15.838c0 5.72-4.637 10.357-10.358 10.357-5.722 0-10.36-4.637-10.36-10.357S29.946 5.48 35.668 5.48c5.72 0 10.358 4.637 10.358 10.357m5.078-.117c0-8.524-6.911-15.433-15.436-15.433S20.23 7.198 20.23 15.72s6.912 15.433 15.437 15.433c8.525 0 15.436-6.91 15.436-15.433"></path>
          </g>
      </svg>